<?xml version="1.0" ?><svg style="enable-background:new 0 0 512 512;" version="1.1" viewBox="0 0 512 512" xml:space="preserve" xmlns="http://www.w3.org/2000/svg" xmlns:xlink="http://www.w3.org/1999/xlink"><style type="text/css">
	.st0{fill:#16ADE1;}
	.st1{fill:#1B3954;}
</style><g id="Layer_1"/><g id="Layer_2"><g><g><g><path class="st1" d="M127.39,115.13c-1.85,0-3.65-0.75-4.95-2.05c-1.31-1.31-2.06-3.11-2.06-4.95c0-0.46,0.05-0.92,0.14-1.37      s0.23-0.89,0.4-1.31c0.18-0.42,0.39-0.83,0.65-1.21c0.25-0.38,0.54-0.74,0.87-1.06c0.32-0.32,0.68-0.62,1.06-0.87      s0.79-0.47,1.21-0.65c0.42-0.17,0.86-0.3,1.31-0.39c0.9-0.19,1.83-0.19,2.73,0c0.45,0.09,0.89,0.22,1.31,0.39      c0.42,0.18,0.83,0.4,1.21,0.65s0.74,0.55,1.06,0.87c0.33,0.32,0.62,0.68,0.87,1.06c0.26,0.38,0.47,0.79,0.65,1.21      c0.17,0.42,0.31,0.86,0.4,1.31s0.13,0.91,0.13,1.37c0,1.84-0.74,3.64-2.05,4.95c-0.32,0.32-0.68,0.61-1.06,0.87      c-0.38,0.25-0.79,0.47-1.21,0.64c-0.42,0.18-0.86,0.31-1.31,0.4C128.3,115.08,127.84,115.13,127.39,115.13z"/></g><g><path class="st1" d="M445.33,498.5H232.83c-3.87,0-7-3.13-7-7V178.93h-98.45c-3.87,0-7-3.13-7-7v-32.1c0-3.87,3.13-7,7-7      s7,3.13,7,7v25.1h98.45c3.87,0,7,3.13,7,7V484.5h198.49v-82.48c0-3.87,3.13-7,7-7s7,3.13,7,7v89.48      C452.33,495.37,449.19,498.5,445.33,498.5z"/></g><g><path class="st1" d="M445.33,386.98c-0.46,0-0.92-0.05-1.37-0.14s-0.89-0.22-1.31-0.4c-0.42-0.17-0.83-0.39-1.21-0.64      c-0.38-0.26-0.74-0.55-1.06-0.87c-0.33-0.32-0.62-0.68-0.87-1.07c-0.26-0.38-0.47-0.78-0.65-1.2c-0.17-0.43-0.31-0.87-0.4-1.31      c-0.09-0.45-0.13-0.91-0.13-1.37s0.04-0.92,0.13-1.37c0.09-0.45,0.23-0.89,0.4-1.31c0.18-0.42,0.39-0.83,0.65-1.21      c0.25-0.38,0.54-0.74,0.87-1.06c0.32-0.33,0.68-0.62,1.06-0.87s0.79-0.47,1.21-0.65c0.42-0.17,0.86-0.31,1.31-0.4      c0.9-0.18,1.83-0.18,2.73,0c0.45,0.09,0.89,0.23,1.31,0.4c0.42,0.18,0.83,0.4,1.21,0.65s0.74,0.54,1.06,0.87      c0.33,0.32,0.62,0.68,0.87,1.06c0.26,0.38,0.47,0.79,0.65,1.21c0.17,0.42,0.31,0.86,0.4,1.31c0.09,0.45,0.13,0.91,0.13,1.37      s-0.04,0.92-0.13,1.37c-0.09,0.44-0.23,0.88-0.4,1.31c-0.18,0.42-0.39,0.82-0.65,1.2c-0.25,0.39-0.54,0.75-0.87,1.07      c-0.32,0.32-0.68,0.61-1.06,0.87c-0.38,0.25-0.79,0.47-1.21,0.64c-0.42,0.18-0.86,0.31-1.31,0.4      C446.24,386.93,445.78,386.98,445.33,386.98z"/></g><g><path class="st1" d="M445.33,360.17c-3.87,0-7-3.13-7-7V27.5H134.38v58.78c0,3.87-3.13,7-7,7s-7-3.13-7-7V20.5      c0-3.87,3.13-7,7-7h317.94c3.87,0,7,3.13,7,7v332.67C452.33,357.04,449.19,360.17,445.33,360.17z"/></g><g><g><path class="st0" d="M132.01,263.14h-29.62c-3.87,0-7-3.13-7-7v-29.62c0-3.87,3.13-7,7-7h29.62c3.87,0,7,3.13,7,7v29.62       C139.01,260.01,135.88,263.14,132.01,263.14z M109.39,249.14h15.62v-15.62h-15.62V249.14z"/></g><g><path class="st0" d="M197.12,263.14H167.5c-3.87,0-7-3.13-7-7v-29.62c0-3.87,3.13-7,7-7h29.62c3.87,0,7,3.13,7,7v29.62       C204.12,260.01,200.98,263.14,197.12,263.14z M174.5,249.14h15.62v-15.62H174.5V249.14z"/></g><g><path class="st0" d="M132.01,323.4h-29.62c-3.87,0-7-3.13-7-7v-29.62c0-3.87,3.13-7,7-7h29.62c3.87,0,7,3.13,7,7v29.62       C139.01,320.26,135.88,323.4,132.01,323.4z M109.39,309.4h15.62v-15.62h-15.62V309.4z"/></g><g><path class="st0" d="M197.12,323.4H167.5c-3.87,0-7-3.13-7-7v-29.62c0-3.87,3.13-7,7-7h29.62c3.87,0,7,3.13,7,7v29.62       C204.12,320.26,200.98,323.4,197.12,323.4z M174.5,309.4h15.62v-15.62H174.5V309.4z"/></g><g><path class="st0" d="M132.01,383.65h-29.62c-3.87,0-7-3.13-7-7v-29.62c0-3.87,3.13-7,7-7h29.62c3.87,0,7,3.13,7,7v29.62       C139.01,380.52,135.88,383.65,132.01,383.65z M109.39,369.65h15.62v-15.62h-15.62V369.65z"/></g><g><path class="st0" d="M197.12,383.65H167.5c-3.87,0-7-3.13-7-7v-29.62c0-3.87,3.13-7,7-7h29.62c3.87,0,7,3.13,7,7v29.62       C204.12,380.52,200.98,383.65,197.12,383.65z M174.5,369.65h15.62v-15.62H174.5V369.65z"/></g><g><path class="st0" d="M132.01,443.91h-29.62c-3.87,0-7-3.13-7-7v-29.62c0-3.87,3.13-7,7-7h29.62c3.87,0,7,3.13,7,7v29.62       C139.01,440.77,135.88,443.91,132.01,443.91z M109.39,429.91h15.62v-15.62h-15.62V429.91z"/></g><g><path class="st0" d="M197.12,443.91H167.5c-3.87,0-7-3.13-7-7v-29.62c0-3.87,3.13-7,7-7h29.62c3.87,0,7,3.13,7,7v29.62       C204.12,440.77,200.98,443.91,197.12,443.91z M174.5,429.91h15.62v-15.62H174.5V429.91z"/></g></g><g><g><path class="st1" d="M308.11,328.1h-28.6c-3.87,0-7-3.13-7-7v-28.6c0-3.87,3.13-7,7-7h28.6c3.87,0,7,3.13,7,7v28.6       C315.11,324.97,311.97,328.1,308.11,328.1z M286.51,314.1h14.6v-14.6h-14.6V314.1z"/></g><g><path class="st1" d="M308.11,393.8h-28.6c-3.87,0-7-3.13-7-7v-28.6c0-3.87,3.13-7,7-7h28.6c3.87,0,7,3.13,7,7v28.6       C315.11,390.67,311.97,393.8,308.11,393.8z M286.51,379.8h14.6v-14.6h-14.6V379.8z"/></g><g><path class="st1" d="M308.11,459.5h-28.6c-3.87,0-7-3.13-7-7v-28.6c0-3.87,3.13-7,7-7h28.6c3.87,0,7,3.13,7,7v28.6       C315.11,456.36,311.97,459.5,308.11,459.5z M286.51,445.5h14.6v-14.6h-14.6V445.5z"/></g></g><g><path class="st0" d="M197.85,85.19h-29.53c-3.87,0-7-3.13-7-7V48.66c0-3.87,3.13-7,7-7h29.53c3.87,0,7,3.13,7,7v29.53      C204.85,82.06,201.72,85.19,197.85,85.19z M175.32,71.19h15.53V55.66h-15.53V71.19z"/></g><g><path class="st0" d="M268.12,85.19h-29.53c-3.87,0-7-3.13-7-7V48.66c0-3.87,3.13-7,7-7h29.53c3.87,0,7,3.13,7,7v29.53      C275.12,82.06,271.99,85.19,268.12,85.19z M245.59,71.19h15.53V55.66h-15.53V71.19z"/></g><g><path class="st0" d="M338.38,85.19h-29.53c-3.87,0-7-3.13-7-7V48.66c0-3.87,3.13-7,7-7h29.53c3.87,0,7,3.13,7,7v29.53      C345.38,82.06,342.25,85.19,338.38,85.19z M315.85,71.19h15.53V55.66h-15.53V71.19z"/></g><g><path class="st0" d="M413.28,85.19h-29.53c-3.87,0-7-3.13-7-7V48.66c0-3.87,3.13-7,7-7h29.53c3.87,0,7,3.13,7,7v29.53      C420.28,82.06,417.14,85.19,413.28,85.19z M390.75,71.19h15.53V55.66h-15.53V71.19z"/></g><g><path class="st1" d="M197.85,146.83h-29.53c-3.87,0-7-3.13-7-7V110.3c0-3.87,3.13-7,7-7h29.53c3.87,0,7,3.13,7,7v29.53      C204.85,143.7,201.72,146.83,197.85,146.83z M175.32,132.83h15.53V117.3h-15.53V132.83z"/></g><g><path class="st1" d="M268.12,146.83h-29.53c-3.87,0-7-3.13-7-7V110.3c0-3.87,3.13-7,7-7h29.53c3.87,0,7,3.13,7,7v29.53      C275.12,143.7,271.99,146.83,268.12,146.83z M245.59,132.83h15.53V117.3h-15.53V132.83z"/></g><g><path class="st1" d="M338.38,146.83h-29.53c-3.87,0-7-3.13-7-7V110.3c0-3.87,3.13-7,7-7h29.53c3.87,0,7,3.13,7,7v29.53      C345.38,143.7,342.25,146.83,338.38,146.83z M315.85,132.83h15.53V117.3h-15.53V132.83z"/></g><g><path class="st1" d="M413.28,146.83h-29.53c-3.87,0-7-3.13-7-7V110.3c0-3.87,3.13-7,7-7h29.53c3.87,0,7,3.13,7,7v29.53      C420.28,143.7,417.14,146.83,413.28,146.83z M390.75,132.83h15.53V117.3h-15.53V132.83z"/></g><g><path class="st1" d="M268.11,208.47h-10.94c-3.87,0-7-3.13-7-7s3.13-7,7-7h3.94v-15.54h-4.71c-3.87,0-7-3.13-7-7s3.13-7,7-7      h11.71c3.87,0,7,3.13,7,7v29.54C275.11,205.34,271.98,208.47,268.11,208.47z"/></g><g><path class="st1" d="M338.38,208.47h-29.53c-3.87,0-7-3.13-7-7v-29.53c0-3.87,3.13-7,7-7h29.53c3.87,0,7,3.13,7,7v29.53      C345.38,205.33,342.25,208.47,338.38,208.47z M315.85,194.47h15.53v-15.53h-15.53V194.47z"/></g><g><path class="st1" d="M413.28,208.47h-29.53c-3.87,0-7-3.13-7-7v-29.53c0-3.87,3.13-7,7-7h29.53c3.87,0,7,3.13,7,7v29.53      C420.28,205.33,417.14,208.47,413.28,208.47z M390.75,194.47h15.53v-15.53h-15.53V194.47z"/></g><g><path class="st1" d="M413.28,270.1h-29.53c-3.87,0-7-3.13-7-7v-29.53c0-3.87,3.13-7,7-7h29.53c3.87,0,7,3.13,7,7v29.53      C420.28,266.97,417.14,270.1,413.28,270.1z M390.75,256.1h15.53v-15.53h-15.53V256.1z"/></g><g><path class="st1" d="M413.28,331.74h-29.53c-3.87,0-7-3.13-7-7v-29.53c0-3.87,3.13-7,7-7h29.53c3.87,0,7,3.13,7,7v29.53      C420.28,328.61,417.14,331.74,413.28,331.74z M390.75,317.74h15.53v-15.53h-15.53V317.74z"/></g><g><path class="st1" d="M413.28,393.38h-29.53c-3.87,0-7-3.13-7-7v-29.53c0-3.87,3.13-7,7-7h29.53c3.87,0,7,3.13,7,7v29.53      C420.28,390.24,417.14,393.38,413.28,393.38z M390.75,379.38h15.53v-15.53h-15.53V379.38z"/></g><g><path class="st1" d="M413.28,455.01h-29.53c-3.87,0-7-3.13-7-7v-29.53c0-3.87,3.13-7,7-7h29.53c3.87,0,7,3.13,7,7v29.53      C420.28,451.88,417.14,455.01,413.28,455.01z M390.75,441.01h15.53v-15.53h-15.53V441.01z"/></g><g><path class="st0" d="M354.79,498.5H232.83c-3.87,0-7-3.13-7-7v-238c0-3.87,3.13-7,7-7h121.95c3.87,0,7,3.13,7,7s-3.13,7-7,7      H239.83v224h107.95V283.21c0-3.87,3.13-7,7-7s7,3.13,7,7V491.5C361.79,495.37,358.65,498.5,354.79,498.5z"/></g><g><path class="st1" d="M232.83,498.5H66.67c-3.87,0-7-3.13-7-7V171.93c0-3.87,3.13-7,7-7h166.16c3.87,0,7,3.13,7,7V491.5      C239.83,495.37,236.7,498.5,232.83,498.5z M73.67,484.5h152.16V178.93H73.67V484.5z"/></g></g></g></g></svg>